# xmcd CD database file
#
# Track frame offsets:
#	150
#	5795
#	29710
#	54895
#	92024
#	109546
#	136222
#	157514
#
# Disc length: 2482 seconds
#
# Revision: 0
# Processed by: cddbd v1.5.2PL0 Copyright (c) Steve Scherf et al.
# Submitted via: CDex 1.70beta2
#
DISCID=5609b008
DTITLE=IRON ATTACK! - CRYING DESTINY
DYEAR=2009
DGENRE=東方アレンジ
TTITLE0=GETTING LOST ROSES
TTITLE1=TRUE EVER ROSE
TTITLE2=Le 'DEVIL' rouge de Ville
TTITLE3=MOON PHASE
TTITLE4=over the rainbow
TTITLE5=～AETERNITAS LUDOLOGY～
TTITLE6=SPEADMASTER DRIVE!
TTITLE7=CRYING DESTINY
EXTD=YEAR: 2009
EXTT0=
EXTT1=
EXTT2=
EXTT3=
EXTT4=
EXTT5=
EXTT6=
EXTT7=
PLAYORDER=
